# xmcd
#
# Track frame offsets: 
#        150
#        13108
#        28648
#        49688
#        64203
#        78950
#        95088
#        113600
#        132603
#        151618
#        165158
#        182940
#        199508
#
# Disc length: 2905 seconds
#
# Revision: 3
# Processed by: cddbd v1.4PL0 Copyright (c) Steve Scherf et al.
# Submitted via: ExactAudioCopy v0.95a2
#
DISCID=9f0b570d
DTITLE=Chris Wall - Cowboy Nation
DYEAR=1999
DGENRE=Country
TTITLE0=Leanna
TTITLE1=Way Out West
TTITLE2=Cowboy Nation
TTITLE3=I Feel Like Hank Williams Tonight
TTITLE4=Let 'er Buck
TTITLE5=My Favorite Lies
TTITLE6=Roadhouse Whiskey
TTITLE7=The End Of The Rainbow Inn
TTITLE8=Cold Blue Highway
TTITLE9=The Bouncer At The Cowboy Bar
TTITLE10=My Old Martin Guitar
TTITLE11=I Drink Therefore I Am
TTITLE12=Cowboy Nation [single version]
EXTD=
EXTT0=
EXTT1=
EXTT2=
EXTT3=
EXTT4=
EXTT5=
EXTT6=
EXTT7=
EXTT8=
EXTT9=
EXTT10=
EXTT11=
EXTT12=
PLAYORDER=
